<svg xmlns="http://www.w3.org/2000/svg" width="271.427" height="264.746" viewBox="0 0 271.427 264.746">
  <defs>
    <clipPath id="clip-path">
      <rect width="271.427" height="264.746"/>
    </clipPath>
  </defs>
  <g clip-path="url(#clip-path)" fill="#2e1f1c">
    <path d="M4.2,71.7H15.539c6.627,0,10.922,3.426,10.922,9.227V81c0,6.252-4.785,9.527-11.3,9.527H11.508v7.532H4.2ZM15.011,84.807c2.562,0,4.18-1.393,4.18-3.465v-.075c0-2.259-1.618-3.426-4.218-3.426H11.508v6.966Z" transform="translate(4.138 70.608)"/>
    <path d="M17.471,71.7h7.306v19.96H37.543v6.4H17.471Z" transform="translate(17.205 70.607)"/>
    <path d="M40.172,71.606h7.046l11.22,26.552H50.6l-1.882-4.745H38.515l-1.882,4.745H28.988Zm6.4,16.12-2.937-7.457-2.975,7.457Z" transform="translate(28.546 70.513)"/>
    <path d="M51.085,78.1H43.214V71.7H66.3v6.4H58.391v19.96H51.085Z" transform="translate(42.554 70.607)"/>
    <path d="M13.043,112.267,2.988,95.772H11.31l5.424,9.6,5.46-9.6h8.171L20.348,112.154v9.981H13.043Z" transform="translate(2.942 94.31)"/>
    <path d="M16.9,109.29v-.075c0-7.57,6.1-13.709,14.237-13.709S45.3,101.569,45.3,109.139v.075c0,7.57-6.1,13.709-14.237,13.709S16.9,116.86,16.9,109.29m20.9,0v-.075a6.8,6.8,0,0,0-6.742-7.117,6.725,6.725,0,0,0-6.7,7.042v.075a6.85,6.85,0,0,0,6.78,7.117c3.991,0,6.665-3.239,6.665-7.042" transform="translate(16.646 94.048)"/>
    <path d="M33.67,95.772h6.816l10.847,13.935V95.772h7.23v26.361H52.2L40.9,107.673v14.461H33.67Z" transform="translate(33.156 94.31)"/>
    <path d="M49.324,95.772h21.2v6.176H56.555v4.029H69.209v5.762H56.555v4.182H70.716v6.212H49.324Z" transform="translate(48.572 94.31)"/>
    <path d="M62.315,116.824l13.218-14.913H62.767V95.772h22.82v5.273L72.369,115.959H85.588v6.176H62.315Z" transform="translate(61.363 94.31)"/>
    <path d="M86.366,95.677H93.41l11.222,26.552H96.8l-1.882-4.746H84.709l-1.882,4.746H75.182Zm6.4,16.12-2.937-7.457L86.856,111.8Z" transform="translate(74.035 94.217)"/>
    <path d="M88.826,95.81h7.721l4.595,15.253,5.083-15.328h6.29l5.085,15.328,4.595-15.253h7.568l-8.812,26.55h-6.363l-5.273-15.175L104,122.359H97.639Z" transform="translate(87.471 94.273)"/>
    <path d="M119.1,95.677h7.044l11.222,26.552h-7.834l-1.882-4.746H117.445l-1.882,4.746h-7.645Zm6.4,16.12-2.937-7.457-2.975,7.457Z" transform="translate(106.271 94.217)"/>
    <rect width="7.306" height="26.361" transform="translate(8.528 237.857)"/>
    <path d="M11.081,119.843H17.9l10.847,13.935V119.843h7.23V146.2H29.611l-11.3-14.461V146.2h-7.23Z" transform="translate(10.912 118.014)"/>
    <path d="M26.132,133.361v-.075a13.511,13.511,0,0,1,13.859-13.709,12.971,12.971,0,0,1,11.184,5.462l-5.5,4.255a7.156,7.156,0,0,0-5.762-3.088c-3.692,0-6.29,3.164-6.29,7v.075c0,3.956,2.6,7.042,6.29,7.042,2.749,0,4.368-1.28,5.95-3.2l5.5,3.916a13.27,13.27,0,0,1-11.637,5.95,13.387,13.387,0,0,1-13.6-13.633" transform="translate(25.733 117.752)"/>
    <rect width="7.419" height="7.344" transform="translate(81.414 256.875)"/>
    <path d="M238.421,7.742,225.748,0H46.105L32.822,8.116,0,74.287,9.148,89.035H262.281l9.148-14.749ZM25.609,68.614l23.906-48.2h172.4l23.906,48.2Z"/>
  </g>
</svg>
